# xmcd
#
# Track frame offsets:
#	150
#	20882
#	39300
#	59540
#	77214
#	95841
#	113364
#	132375
#	147606
#	167262
#
# Disc length: 2462 seconds
# Revision: 0
# Processed by: cddbd v1.5.2PL0 Copyright (c) Steve Scherf et al.
# Submitted via: dBpowerAMP V12.0
#
DISCID=88099c0a
DTITLE=Altered Five - Gotta Earn It
DYEAR=2012
DGENRE=Blues Soul
TTITLE0=Ain't That Peculiar
TTITLE1=Three Wishes
TTITLE2=You've Got to Earn It
TTITLE3=Keep the Best
TTITLE4=Older Wiser Richer
TTITLE5=Mona Lisa
TTITLE6=Tight Spot
TTITLE7=Dynamite
TTITLE8=Watch Yourself
TTITLE9=Bounce Back
EXTD=
EXTT0=
EXTT1=
EXTT2=
EXTT3=
EXTT4=
EXTT5=
EXTT6=
EXTT7=
EXTT8=
EXTT9=
PLAYORDER=
